{
	"asset":{
		"generator":"Khronos glTF Blender I/O v3.6.27",
		"version":"2.0"
	},
	"extensionsUsed":[
		"KHR_materials_specular",
		"KHR_materials_ior"
	],
	"scene":0,
	"scenes":[
		{
			"name":"Scene",
			"nodes":[
				0,
				1,
				2,
				3
			]
		}
	],
	"nodes":[
		{
			"mesh":0,
			"name":"folhas medias.012",
			"rotation":[
				-0.07452817261219025,
				-0.2728818356990814,
				-0.2065928876399994,
				0.9366431832313538
			],
			"scale":[
				0.7866078615188599,
				0.7866078615188599,
				0.7866078615188599
			],
			"translation":[
				0.14618225395679474,
				0.7495419383049011,
				-0.5326449275016785
			]
		},
		{
			"mesh":1,
			"name":"folhas claras.001",
			"rotation":[
				-0.062190085649490356,
				0.3754109740257263,
				0.16398881375789642,
				0.9101135730743408
			],
			"scale":[
				0.7866078615188599,
				0.7866078615188599,
				0.7866078615188599
			],
			"translation":[
				0.2746593654155731,
				0.9815748929977417,
				-0.49472180008888245
			]
		},
		{
			"mesh":2,
			"name":"folhas escuras.006",
			"rotation":[
				-0.22613461315631866,
				0.5237302780151367,
				-0.17767839133739471,
				0.8018729090690613
			],
			"scale":[
				0.7866078615188599,
				0.7866078615188599,
				0.7866078615188599
			],
			"translation":[
				-0.16044294834136963,
				0.14730429649353027,
				-0.5891048908233643
			]
		},
		{
			"mesh":3,
			"name":"folhas medias.001",
			"rotation":[
				0.1401764303445816,
				-0.894084095954895,
				-0.21464745700359344,
				0.3672749400138855
			],
			"scale":[
				0.7866079211235046,
				0.7866078615188599,
				0.7866078615188599
			],
			"translation":[
				0.4441729485988617,
				0.7104048132896423,
				0.25794440507888794
			]
		}
	],
	"materials":[
		{
			"alphaMode":"BLEND",
			"doubleSided":true,
			"extensions":{
				"KHR_materials_specular":{
					"specularColorFactor":[
						0.21557793603795994,
						0.21557793603795994,
						0.21557793603795994
					]
				},
				"KHR_materials_ior":{
					"ior":1.4500000476837158
				}
			},
			"name":"folha02",
			"pbrMetallicRoughness":{
				"baseColorFactor":[
					0.13848254084587097,
					0.1310836374759674,
					0.0053297667764127254,
					1
				],
				"baseColorTexture":{
					"index":0
				},
				"metallicFactor":0,
				"roughnessFactor":0.75
			}
		},
		{
			"alphaMode":"BLEND",
			"doubleSided":true,
			"extensions":{
				"KHR_materials_specular":{
					"specularColorFactor":[
						0.6143971795461545,
						0.6143971795461545,
						0.6143971795461545
					]
				},
				"KHR_materials_ior":{
					"ior":1.4500000476837158
				}
			},
			"name":"folha01",
			"pbrMetallicRoughness":{
				"baseColorFactor":[
					0.4178849458694458,
					0.3277779221534729,
					0.01599639467895031,
					1
				],
				"baseColorTexture":{
					"index":1
				},
				"metallicFactor":0,
				"roughnessFactor":0.8818181753158569
			}
		},
		{
			"alphaMode":"BLEND",
			"doubleSided":true,
			"extensions":{
				"KHR_materials_specular":{
					"specularColorFactor":[
						0.05389452817946756,
						0.05389452817946756,
						0.05389452817946756
					]
				},
				"KHR_materials_ior":{
					"ior":1.4500000476837158
				}
			},
			"name":"folha03",
			"pbrMetallicRoughness":{
				"baseColorFactor":[
					0.06865502893924713,
					0.057858698070049286,
					0,
					1
				],
				"baseColorTexture":{
					"index":2
				},
				"metallicFactor":0,
				"roughnessFactor":0.8181818127632141
			}
		}
	],
	"meshes":[
		{
			"name":"Plane.033",
			"primitives":[
				{
					"attributes":{
						"POSITION":0,
						"NORMAL":1,
						"TEXCOORD_0":2
					},
					"indices":3,
					"material":0
				}
			]
		},
		{
			"name":"Plane.065",
			"primitives":[
				{
					"attributes":{
						"POSITION":4,
						"NORMAL":5,
						"TEXCOORD_0":6
					},
					"indices":7,
					"material":1
				}
			]
		},
		{
			"name":"Plane.080",
			"primitives":[
				{
					"attributes":{
						"POSITION":8,
						"NORMAL":9,
						"TEXCOORD_0":10
					},
					"indices":7,
					"material":2
				}
			]
		},
		{
			"name":"Plane.082",
			"primitives":[
				{
					"attributes":{
						"POSITION":11,
						"NORMAL":12,
						"TEXCOORD_0":13
					},
					"indices":3,
					"material":0
				}
			]
		}
	],
	"textures":[
		{
			"sampler":0,
			"source":0
		},
		{
			"sampler":0,
			"source":0
		},
		{
			"sampler":0,
			"source":0
		}
	],
	"images":[
		{
			"bufferView":4,
			"mimeType":"image/png",
			"name":"folha_alpha"
		}
	],
	"accessors":[
		{
			"bufferView":0,
			"componentType":5126,
			"count":27,
			"max":[
				1.8687069416046143,
				0.6551560759544373,
				1.8828529119491577
			],
			"min":[
				-1.175595760345459,
				-0.9127352833747864,
				-1.2955275774002075
			],
			"type":"VEC3"
		},
		{
			"bufferView":1,
			"componentType":5126,
			"count":27,
			"type":"VEC3"
		},
		{
			"bufferView":2,
			"componentType":5126,
			"count":27,
			"type":"VEC2"
		},
		{
			"bufferView":3,
			"componentType":5123,
			"count":72,
			"type":"SCALAR"
		},
		{
			"bufferView":5,
			"componentType":5126,
			"count":72,
			"max":[
				1.0650105476379395,
				0.764960765838623,
				1.5879571437835693
			],
			"min":[
				-2.3871636390686035,
				-1.7775886058807373,
				-1.9799944162368774
			],
			"type":"VEC3"
		},
		{
			"bufferView":6,
			"componentType":5126,
			"count":72,
			"type":"VEC3"
		},
		{
			"bufferView":7,
			"componentType":5126,
			"count":72,
			"type":"VEC2"
		},
		{
			"bufferView":8,
			"componentType":5123,
			"count":192,
			"type":"SCALAR"
		},
		{
			"bufferView":9,
			"componentType":5126,
			"count":72,
			"max":[
				1.3150277137756348,
				0.8247478008270264,
				1.9789921045303345
			],
			"min":[
				-2.1311235427856445,
				-1.638218879699707,
				-1.394787073135376
			],
			"type":"VEC3"
		},
		{
			"bufferView":10,
			"componentType":5126,
			"count":72,
			"type":"VEC3"
		},
		{
			"bufferView":11,
			"componentType":5126,
			"count":72,
			"type":"VEC2"
		},
		{
			"bufferView":12,
			"componentType":5126,
			"count":27,
			"max":[
				1.8687069416046143,
				0.6551560759544373,
				1.8828529119491577
			],
			"min":[
				-1.175595760345459,
				-0.9127352833747864,
				-1.2955275774002075
			],
			"type":"VEC3"
		},
		{
			"bufferView":13,
			"componentType":5126,
			"count":27,
			"type":"VEC3"
		},
		{
			"bufferView":14,
			"componentType":5126,
			"count":27,
			"type":"VEC2"
		}
	],
	"bufferViews":[
		{
			"buffer":0,
			"byteLength":324,
			"byteOffset":0,
			"target":34962
		},
		{
			"buffer":0,
			"byteLength":324,
			"byteOffset":324,
			"target":34962
		},
		{
			"buffer":0,
			"byteLength":216,
			"byteOffset":648,
			"target":34962
		},
		{
			"buffer":0,
			"byteLength":144,
			"byteOffset":864,
			"target":34963
		},
		{
			"buffer":0,
			"byteLength":94344,
			"byteOffset":1008
		},
		{
			"buffer":0,
			"byteLength":864,
			"byteOffset":95352,
			"target":34962
		},
		{
			"buffer":0,
			"byteLength":864,
			"byteOffset":96216,
			"target":34962
		},
		{
			"buffer":0,
			"byteLength":576,
			"byteOffset":97080,
			"target":34962
		},
		{
			"buffer":0,
			"byteLength":384,
			"byteOffset":97656,
			"target":34963
		},
		{
			"buffer":0,
			"byteLength":864,
			"byteOffset":98040,
			"target":34962
		},
		{
			"buffer":0,
			"byteLength":864,
			"byteOffset":98904,
			"target":34962
		},
		{
			"buffer":0,
			"byteLength":576,
			"byteOffset":99768,
			"target":34962
		},
		{
			"buffer":0,
			"byteLength":324,
			"byteOffset":100344,
			"target":34962
		},
		{
			"buffer":0,
			"byteLength":324,
			"byteOffset":100668,
			"target":34962
		},
		{
			"buffer":0,
			"byteLength":216,
			"byteOffset":100992,
			"target":34962
		}
	],
	"samplers":[
		{
			"magFilter":9729,
			"minFilter":9987
		}
	],
	"buffers":[
		{
			"byteLength":101208,
			"uri":"data:application/octet-stream;base64,"
		}
	]
}
