{
	"asset":{
		"generator":"Khronos glTF Blender I/O v3.6.27",
		"version":"2.0"
	},
	"extensionsUsed":[
		"KHR_materials_specular",
		"KHR_materials_ior"
	],
	"scene":0,
	"scenes":[
		{
			"name":"Scene",
			"nodes":[
				1,
				2,
				3
			]
		}
	],
	"nodes":[
		{
			"mesh":0,
			"name":"folhas claras",
			"rotation":[
				-0.21499644219875336,
				-0.7836786508560181,
				-0.0036698461044579744,
				0.5827614665031433
			],
			"translation":[
				4.392068862915039,
				7.86128568649292,
				-1.9361780881881714
			]
		},
		{
			"children":[
				0
			],
			"mesh":1,
			"name":"tronco",
			"scale":[
				0.7866078615188599,
				0.7866078615188599,
				0.7866078615188599
			]
		},
		{
			"mesh":2,
			"name":"folhas escuras",
			"rotation":[
				0.10078859329223633,
				0.24118049442768097,
				-0.2022339552640915,
				0.9438087940216064
			],
			"scale":[
				0.7866078615188599,
				0.7866078615188599,
				0.7866078615188599
			],
			"translation":[
				1.4647587537765503,
				7.545811176300049,
				-2.192403554916382
			]
		},
		{
			"mesh":3,
			"name":"folhas medias",
			"rotation":[
				-0.024579783901572227,
				0.3774702548980713,
				-0.1027970090508461,
				0.9199700355529785
			],
			"scale":[
				0.7866078615188599,
				0.7866078615188599,
				0.7866078615188599
			],
			"translation":[
				-0.3448280990123749,
				4.6294846534729,
				-2.0771310329437256
			]
		}
	],
	"materials":[
		{
			"alphaMode":"BLEND",
			"doubleSided":true,
			"extensions":{
				"KHR_materials_specular":{
					"specularColorFactor":[
						0.6143971795461545,
						0.6143971795461545,
						0.6143971795461545
					]
				},
				"KHR_materials_ior":{
					"ior":1.4500000476837158
				}
			},
			"name":"folha01",
			"pbrMetallicRoughness":{
				"baseColorFactor":[
					0.4178849458694458,
					0.3277779221534729,
					0.01599639467895031,
					1
				],
				"baseColorTexture":{
					"index":0
				},
				"metallicFactor":0,
				"roughnessFactor":0.8818181753158569
			}
		},
		{
			"doubleSided":true,
			"extensions":{
				"KHR_materials_specular":{
					"specularColorFactor":[
						0.625176067514057,
						0.625176067514057,
						0.625176067514057
					]
				},
				"KHR_materials_ior":{
					"ior":1.4500000476837158
				}
			},
			"name":"arvore",
			"pbrMetallicRoughness":{
				"baseColorFactor":[
					0.14171665906906128,
					0.03289855271577835,
					0,
					1
				],
				"metallicFactor":0
			}
		},
		{
			"alphaMode":"BLEND",
			"doubleSided":true,
			"extensions":{
				"KHR_materials_specular":{
					"specularColorFactor":[
						0.05389452817946756,
						0.05389452817946756,
						0.05389452817946756
					]
				},
				"KHR_materials_ior":{
					"ior":1.4500000476837158
				}
			},
			"name":"folha03",
			"pbrMetallicRoughness":{
				"baseColorFactor":[
					0.06865502893924713,
					0.057858698070049286,
					0,
					1
				],
				"baseColorTexture":{
					"index":1
				},
				"metallicFactor":0,
				"roughnessFactor":0.8181818127632141
			}
		},
		{
			"alphaMode":"BLEND",
			"doubleSided":true,
			"extensions":{
				"KHR_materials_specular":{
					"specularColorFactor":[
						0.21557793603795994,
						0.21557793603795994,
						0.21557793603795994
					]
				},
				"KHR_materials_ior":{
					"ior":1.4500000476837158
				}
			},
			"name":"folha02",
			"pbrMetallicRoughness":{
				"baseColorFactor":[
					0.13848254084587097,
					0.1310836374759674,
					0.0053297667764127254,
					1
				],
				"baseColorTexture":{
					"index":2
				},
				"metallicFactor":0,
				"roughnessFactor":0.75
			}
		}
	],
	"meshes":[
		{
			"name":"Plane.145",
			"primitives":[
				{
					"attributes":{
						"POSITION":0,
						"NORMAL":1,
						"TEXCOORD_0":2
					},
					"indices":3,
					"material":0
				}
			]
		},
		{
			"name":"Cube.002",
			"primitives":[
				{
					"attributes":{
						"POSITION":4,
						"NORMAL":5,
						"TEXCOORD_0":6
					},
					"indices":7,
					"material":1
				}
			]
		},
		{
			"name":"Plane.114",
			"primitives":[
				{
					"attributes":{
						"POSITION":8,
						"NORMAL":9,
						"TEXCOORD_0":10
					},
					"indices":11,
					"material":2
				}
			]
		},
		{
			"name":"Plane.059",
			"primitives":[
				{
					"attributes":{
						"POSITION":12,
						"NORMAL":13,
						"TEXCOORD_0":14
					},
					"indices":15,
					"material":3
				}
			]
		}
	],
	"textures":[
		{
			"sampler":0,
			"source":0
		},
		{
			"sampler":0,
			"source":0
		},
		{
			"sampler":0,
			"source":0
		}
	],
	"images":[
		{
			"bufferView":4,
			"mimeType":"image/png",
			"name":"folha pincel"
		}
	],
	"accessors":[
		{
			"bufferView":0,
			"componentType":5126,
			"count":792,
			"max":[
				9.137914657592773,
				3.8457391262054443,
				9.859800338745117
			],
			"min":[
				-1.9123270511627197,
				-6.43652868270874,
				-3.2971715927124023
			],
			"type":"VEC3"
		},
		{
			"bufferView":1,
			"componentType":5126,
			"count":792,
			"type":"VEC3"
		},
		{
			"bufferView":2,
			"componentType":5126,
			"count":792,
			"type":"VEC2"
		},
		{
			"bufferView":3,
			"componentType":5123,
			"count":2112,
			"type":"SCALAR"
		},
		{
			"bufferView":5,
			"componentType":5126,
			"count":2617,
			"max":[
				5.011263847351074,
				13.951103210449219,
				4.568959712982178
			],
			"min":[
				-4.89431095123291,
				-0.4472358226776123,
				-4.813704490661621
			],
			"type":"VEC3"
		},
		{
			"bufferView":6,
			"componentType":5126,
			"count":2617,
			"type":"VEC3"
		},
		{
			"bufferView":7,
			"componentType":5126,
			"count":2617,
			"type":"VEC2"
		},
		{
			"bufferView":8,
			"componentType":5123,
			"count":10668,
			"type":"SCALAR"
		},
		{
			"bufferView":9,
			"componentType":5126,
			"count":648,
			"max":[
				3.110081195831299,
				3.662585973739624,
				7.416192531585693
			],
			"min":[
				-6.993793964385986,
				-6.80221700668335,
				-4.42741584777832
			],
			"type":"VEC3"
		},
		{
			"bufferView":10,
			"componentType":5126,
			"count":648,
			"type":"VEC3"
		},
		{
			"bufferView":11,
			"componentType":5126,
			"count":648,
			"type":"VEC2"
		},
		{
			"bufferView":12,
			"componentType":5123,
			"count":1728,
			"type":"SCALAR"
		},
		{
			"bufferView":13,
			"componentType":5126,
			"count":774,
			"max":[
				4.118404388427734,
				7.701411724090576,
				8.013201713562012
			],
			"min":[
				-7.387221336364746,
				-1.350459337234497,
				-4.741519927978516
			],
			"type":"VEC3"
		},
		{
			"bufferView":14,
			"componentType":5126,
			"count":774,
			"type":"VEC3"
		},
		{
			"bufferView":15,
			"componentType":5126,
			"count":774,
			"type":"VEC2"
		},
		{
			"bufferView":16,
			"componentType":5123,
			"count":2064,
			"type":"SCALAR"
		}
	],
	"bufferViews":[
		{
			"buffer":0,
			"byteLength":9504,
			"byteOffset":0,
			"target":34962
		},
		{
			"buffer":0,
			"byteLength":9504,
			"byteOffset":9504,
			"target":34962
		},
		{
			"buffer":0,
			"byteLength":6336,
			"byteOffset":19008,
			"target":34962
		},
		{
			"buffer":0,
			"byteLength":4224,
			"byteOffset":25344,
			"target":34963
		},
		{
			"buffer":0,
			"byteLength":94344,
			"byteOffset":29568
		},
		{
			"buffer":0,
			"byteLength":31404,
			"byteOffset":123912,
			"target":34962
		},
		{
			"buffer":0,
			"byteLength":31404,
			"byteOffset":155316,
			"target":34962
		},
		{
			"buffer":0,
			"byteLength":20936,
			"byteOffset":186720,
			"target":34962
		},
		{
			"buffer":0,
			"byteLength":21336,
			"byteOffset":207656,
			"target":34963
		},
		{
			"buffer":0,
			"byteLength":7776,
			"byteOffset":228992,
			"target":34962
		},
		{
			"buffer":0,
			"byteLength":7776,
			"byteOffset":236768,
			"target":34962
		},
		{
			"buffer":0,
			"byteLength":5184,
			"byteOffset":244544,
			"target":34962
		},
		{
			"buffer":0,
			"byteLength":3456,
			"byteOffset":249728,
			"target":34963
		},
		{
			"buffer":0,
			"byteLength":9288,
			"byteOffset":253184,
			"target":34962
		},
		{
			"buffer":0,
			"byteLength":9288,
			"byteOffset":262472,
			"target":34962
		},
		{
			"buffer":0,
			"byteLength":6192,
			"byteOffset":271760,
			"target":34962
		},
		{
			"buffer":0,
			"byteLength":4128,
			"byteOffset":277952,
			"target":34963
		}
	],
	"samplers":[
		{
			"magFilter":9729,
			"minFilter":9987
		}
	],
	"buffers":[
		{
			"byteLength":282080,
			"uri":"data:application/octet-stream;base64,"
		}
	]
}
