{
	"asset":{
		"generator":"Khronos glTF Blender I/O v3.6.27",
		"version":"2.0"
	},
	"extensionsUsed":[
		"KHR_materials_specular",
		"KHR_materials_ior"
	],
	"scene":0,
	"scenes":[
		{
			"name":"Scene",
			"nodes":[
				0
			]
		}
	],
	"nodes":[
		{
			"mesh":0,
			"name":"arvore.002",
			"scale":[
				0.7866078615188599,
				0.7866078615188599,
				0.7866078615188599
			]
		}
	],
	"materials":[
		{
			"doubleSided":true,
			"extensions":{
				"KHR_materials_specular":{
					"specularColorFactor":[
						0.625176067514057,
						0.625176067514057,
						0.625176067514057
					]
				},
				"KHR_materials_ior":{
					"ior":1.4500000476837158
				}
			},
			"name":"arvore",
			"pbrMetallicRoughness":{
				"baseColorFactor":[
					0.14171665906906128,
					0.03289855271577835,
					0,
					1
				],
				"metallicFactor":0
			}
		},
		{
			"alphaMode":"BLEND",
			"doubleSided":true,
			"extensions":{
				"KHR_materials_specular":{
					"specularColorFactor":[
						0.21557793603795994,
						0.21557793603795994,
						0.21557793603795994
					]
				},
				"KHR_materials_ior":{
					"ior":1.4500000476837158
				}
			},
			"name":"folha02",
			"pbrMetallicRoughness":{
				"baseColorFactor":[
					0.13848254084587097,
					0.1310836374759674,
					0.0053297667764127254,
					1
				],
				"baseColorTexture":{
					"index":0
				},
				"metallicFactor":0,
				"roughnessFactor":0.75
			}
		},
		{
			"alphaMode":"BLEND",
			"doubleSided":true,
			"extensions":{
				"KHR_materials_specular":{
					"specularColorFactor":[
						0.6143971795461545,
						0.6143971795461545,
						0.6143971795461545
					]
				},
				"KHR_materials_ior":{
					"ior":1.4500000476837158
				}
			},
			"name":"folha01",
			"pbrMetallicRoughness":{
				"baseColorFactor":[
					0.4178849458694458,
					0.3277779221534729,
					0.01599639467895031,
					1
				],
				"baseColorTexture":{
					"index":1
				},
				"metallicFactor":0,
				"roughnessFactor":0.8818181753158569
			}
		},
		{
			"alphaMode":"BLEND",
			"doubleSided":true,
			"extensions":{
				"KHR_materials_specular":{
					"specularColorFactor":[
						0.05389452817946756,
						0.05389452817946756,
						0.05389452817946756
					]
				},
				"KHR_materials_ior":{
					"ior":1.4500000476837158
				}
			},
			"name":"folha03",
			"pbrMetallicRoughness":{
				"baseColorFactor":[
					0.06865502893924713,
					0.057858698070049286,
					0,
					1
				],
				"baseColorTexture":{
					"index":2
				},
				"metallicFactor":0,
				"roughnessFactor":0.8181818127632141
			}
		}
	],
	"meshes":[
		{
			"name":"Cube.004",
			"primitives":[
				{
					"attributes":{
						"POSITION":0,
						"NORMAL":1,
						"TEXCOORD_0":2
					},
					"indices":3,
					"material":0
				},
				{
					"attributes":{
						"POSITION":4,
						"NORMAL":5,
						"TEXCOORD_0":6
					},
					"indices":7,
					"material":1
				},
				{
					"attributes":{
						"POSITION":8,
						"NORMAL":9,
						"TEXCOORD_0":10
					},
					"indices":11,
					"material":2
				},
				{
					"attributes":{
						"POSITION":12,
						"NORMAL":13,
						"TEXCOORD_0":14
					},
					"indices":15,
					"material":3
				}
			]
		}
	],
	"textures":[
		{
			"sampler":0,
			"source":0
		},
		{
			"sampler":0,
			"source":0
		},
		{
			"sampler":0,
			"source":0
		}
	],
	"images":[
		{
			"bufferView":8,
			"mimeType":"image/png",
			"name":"folha pincel"
		}
	],
	"accessors":[
		{
			"bufferView":0,
			"componentType":5126,
			"count":2617,
			"max":[
				5.011263847351074,
				13.951103210449219,
				4.568959712982178
			],
			"min":[
				-4.89431095123291,
				-0.4472358226776123,
				-4.813704490661621
			],
			"type":"VEC3"
		},
		{
			"bufferView":1,
			"componentType":5126,
			"count":2617,
			"type":"VEC3"
		},
		{
			"bufferView":2,
			"componentType":5126,
			"count":2617,
			"type":"VEC2"
		},
		{
			"bufferView":3,
			"componentType":5123,
			"count":10668,
			"type":"SCALAR"
		},
		{
			"bufferView":4,
			"componentType":5126,
			"count":369,
			"max":[
				7.16866397857666,
				14.008063316345215,
				5.899176120758057
			],
			"min":[
				-5.9122538566589355,
				5.521778583526611,
				-5.932767868041992
			],
			"type":"VEC3"
		},
		{
			"bufferView":5,
			"componentType":5126,
			"count":369,
			"type":"VEC3"
		},
		{
			"bufferView":6,
			"componentType":5126,
			"count":369,
			"type":"VEC2"
		},
		{
			"bufferView":7,
			"componentType":5123,
			"count":984,
			"type":"SCALAR"
		},
		{
			"bufferView":9,
			"componentType":5126,
			"count":396,
			"max":[
				7.072210788726807,
				14.312456130981445,
				5.8075785636901855
			],
			"min":[
				-6.3702168464660645,
				5.324380874633789,
				-6.297091960906982
			],
			"type":"VEC3"
		},
		{
			"bufferView":10,
			"componentType":5126,
			"count":396,
			"type":"VEC3"
		},
		{
			"bufferView":11,
			"componentType":5126,
			"count":396,
			"type":"VEC2"
		},
		{
			"bufferView":12,
			"componentType":5123,
			"count":1056,
			"type":"SCALAR"
		},
		{
			"bufferView":13,
			"componentType":5126,
			"count":324,
			"max":[
				6.810665607452393,
				13.768621444702148,
				6.1037983894348145
			],
			"min":[
				-6.4909844398498535,
				5.324380874633789,
				-6.4086480140686035
			],
			"type":"VEC3"
		},
		{
			"bufferView":14,
			"componentType":5126,
			"count":324,
			"type":"VEC3"
		},
		{
			"bufferView":15,
			"componentType":5126,
			"count":324,
			"type":"VEC2"
		},
		{
			"bufferView":16,
			"componentType":5123,
			"count":864,
			"type":"SCALAR"
		}
	],
	"bufferViews":[
		{
			"buffer":0,
			"byteLength":31404,
			"byteOffset":0,
			"target":34962
		},
		{
			"buffer":0,
			"byteLength":31404,
			"byteOffset":31404,
			"target":34962
		},
		{
			"buffer":0,
			"byteLength":20936,
			"byteOffset":62808,
			"target":34962
		},
		{
			"buffer":0,
			"byteLength":21336,
			"byteOffset":83744,
			"target":34963
		},
		{
			"buffer":0,
			"byteLength":4428,
			"byteOffset":105080,
			"target":34962
		},
		{
			"buffer":0,
			"byteLength":4428,
			"byteOffset":109508,
			"target":34962
		},
		{
			"buffer":0,
			"byteLength":2952,
			"byteOffset":113936,
			"target":34962
		},
		{
			"buffer":0,
			"byteLength":1968,
			"byteOffset":116888,
			"target":34963
		},
		{
			"buffer":0,
			"byteLength":94344,
			"byteOffset":118856
		},
		{
			"buffer":0,
			"byteLength":4752,
			"byteOffset":213200,
			"target":34962
		},
		{
			"buffer":0,
			"byteLength":4752,
			"byteOffset":217952,
			"target":34962
		},
		{
			"buffer":0,
			"byteLength":3168,
			"byteOffset":222704,
			"target":34962
		},
		{
			"buffer":0,
			"byteLength":2112,
			"byteOffset":225872,
			"target":34963
		},
		{
			"buffer":0,
			"byteLength":3888,
			"byteOffset":227984,
			"target":34962
		},
		{
			"buffer":0,
			"byteLength":3888,
			"byteOffset":231872,
			"target":34962
		},
		{
			"buffer":0,
			"byteLength":2592,
			"byteOffset":235760,
			"target":34962
		},
		{
			"buffer":0,
			"byteLength":1728,
			"byteOffset":238352,
			"target":34963
		}
	],
	"samplers":[
		{
			"magFilter":9729,
			"minFilter":9987
		}
	],
	"buffers":[
		{
			"byteLength":240080,
			"uri":"data:application/octet-stream;base64,"
		}
	]
}
